<!-- This is an SVG sprite that we added in its entirety and hidden visually. -->
<svg aria-hidden="true" style="position:absolute;width:0;height:0" xmlns="http://www.w3.org/2000/svg" overflow="hidden">
  <defs>
    <!--instagram icon-->
    <symbol id="icon-instagram" viewBox="0 0 24 24">
        <path d="M23.9765 7.05607c-.0562-1.27522-.2624-2.15191-.5578-2.91158-.3048-.80637-.7736-1.52832-1.3879-2.12847-.6001-.6095-1.3268-1.0831-2.1239-1.38308-.764-.29541-1.6361-.50163-2.9114-.55785C15.7108.0141 15.303 0 12.0445 0 8.78606 0 8.37821.0141 7.09823.07033c-1.27521.05622-2.1519.26262-2.91139.55784-.80655.30475-1.52849.77359-2.12865 1.38785C1.4487 2.61617.97528 3.34288.67511 4.13991.37971 4.90416.1735 5.77609.11726 7.0513.05628 8.33604.04218 8.7439.04218 12.0023c0 3.2585.0141 3.6663.07032 4.9463.05623 1.2752.26263 2.1519.55803 2.9116.30475.8064.77817 1.5283 1.38766 2.1285.60016.6095 1.32686 1.0831 2.12389 1.3831.76425.2954 1.63618.5016 2.91158.5578 1.27979.0564 1.68782.0703 4.94624.0703 3.2585 0 3.6663-.0139 4.9463-.0703 1.2752-.0562 2.1519-.2624 2.9114-.5578 1.6129-.6236 2.8881-1.8989 3.5117-3.5116.2953-.7642.5017-1.6364.5579-2.9116.0562-1.28.0703-1.6878.0703-4.9463 0-3.2584-.0048-3.66626-.061-4.94623Zm-2.1612 9.79883c-.0517 1.1721-.2486 1.805-.4126 2.227-.4033 1.0455-1.2331 1.8753-2.2787 2.2786-.4219.1641-1.0595.361-2.227.4124-1.2659.0564-1.6455.0704-4.8477.0704-3.20225 0-3.58666-.014-4.84796-.0704-1.1721-.0514-1.80504-.2483-2.22699-.4124-.52031-.1923-.99391-.4971-1.37832-.8956-.39852-.3891-.70326-.858-.89556-1.3783-.1641-.4219-.36097-1.0596-.41244-2.227-.0564-1.2659-.07032-1.6457-.07032-4.8479 0-3.20224.01392-3.58665.07032-4.84776.05147-1.17211.24834-1.80504.41244-2.227.1923-.52049.49704-.99391.90032-1.37851.38899-.39851.85783-.70326 1.37832-.89537.42196-.1641 1.05965-.36097 2.22699-.41262 1.26588-.05622 1.64571-.07033 4.8477-.07033 3.207 0 3.5867.01411 4.848.07033 1.1721.05165 1.805.24852 2.227.41262.5203.19211.9939.49686 1.3783.89537.3985.38918.7033.85802.8956 1.37851.164.42196.3609 1.05947.4126 2.227.0562 1.26587.0703 1.64552.0703 4.84776 0 3.2022-.0141 3.5773-.0703 4.8432Z"/>
        <path d="M12.0445 5.83704c-3.40364 0-6.16523 2.7614-6.16523 6.16526 0 3.4039 2.76159 6.1653 6.16523 6.1653 3.4039 0 6.1653-2.7614 6.1653-6.1653 0-3.40386-2.7614-6.16526-6.1653-6.16526Zm0 10.16456c-2.2081 0-3.99922-1.791-3.99922-3.9993 0-2.20832 1.79112-3.99925 3.99922-3.99925 2.2084 0 3.9993 1.79093 3.9993 3.99925 0 2.2083-1.7909 3.9993-3.9993 3.9993ZM19.893 5.59336c0 .79484-.6444 1.43931-1.4395 1.43931-.7948 0-1.4393-.64447-1.4393-1.43931 0-.79501.6445-1.43931 1.4393-1.43931.7951 0 1.4395.6443 1.4395 1.43931Z"/>
    </symbol>

    <!--twitter icon-->
    <symbol id="icon-twitter" viewBox="0 0 24 24">
        <path d="M25.312 6.375c-0.688 1-1.547 1.891-2.531 2.609 0.016 0.219 0.016 0.438 0.016 0.656 0 6.672-5.078 14.359-14.359 14.359-2.859 0-5.516-0.828-7.75-2.266 0.406 0.047 0.797 0.063 1.219 0.063 2.359 0 4.531-0.797 6.266-2.156-2.219-0.047-4.078-1.5-4.719-3.5 0.313 0.047 0.625 0.078 0.953 0.078 0.453 0 0.906-0.063 1.328-0.172-2.312-0.469-4.047-2.5-4.047-4.953v-0.063c0.672 0.375 1.453 0.609 2.281 0.641-1.359-0.906-2.25-2.453-2.25-4.203 0-0.938 0.25-1.797 0.688-2.547 2.484 3.062 6.219 5.063 10.406 5.281-0.078-0.375-0.125-0.766-0.125-1.156 0-2.781 2.25-5.047 5.047-5.047 1.453 0 2.766 0.609 3.687 1.594 1.141-0.219 2.234-0.641 3.203-1.219-0.375 1.172-1.172 2.156-2.219 2.781 1.016-0.109 2-0.391 2.906-0.781z"></path>
    </symbol>

    <!--facebook icon-->
    <symbol id="icon-facebook" viewBox="0 0 24 24">
        <path  d="M15.997 3.985h2.191V.169C17.81.117 16.51 0 14.996 0c-3.159 0-5.32299 1.987-5.32299 5.639V9h-3.486v4.266h3.486V24H13.947V13.267h3.345l.531-4.266h-3.877V6.062c.001-1.233.333-2.077 2.051-2.077Z"/>
       
    </symbol>

    <!--linkedin icon-->
    <symbol id="icon-linkedin" viewBox="0 0 24 24">
        <path d="M5 3c0 1.062-0.71 1.976-2.001 1.976-1.215 0-1.999-0.862-1.999-1.924 0-1.090 0.76-2.052 2-2.052s1.976 0.91 2 2zM1 19v-13h4v13h-4z"></path>
        <path d="M7 10.444c0-1.545-0.051-2.836-0.102-3.951h3.594l0.178 1.723h0.076c0.506-0.811 1.746-2 3.822-2 2.532 0 4.432 1.695 4.432 5.342v7.442h-4v-6.861c0-1.594-0.607-2.81-2-2.81-1.062 0-1.594 0.86-1.873 1.569-0.102 0.254-0.127 0.608-0.127 0.963v7.139h-4v-8.556z"></path>
    </symbol>
    
  </defs>
</svg>